ffmpeg started on 2025-04-07 at 13:50:02
Report written to "D:\Convert\FFMetrics\reports\psnr_report-4.txt"
Log level: 32
Command line:
ffmpeg -hide_banner -nostdin -r 24000/1001 -i "G:\\\xc0\xed\xe8\xec\xe5\\\xce\xed\xe3\xee\xe8\xed\xe3\xe8\\!_37_\xc7\xe8\xec\xe0_2025\\JamClub\\\xcf\xee\xe4\xed\xff\xf2\xe8\xe5 \xf3\xf0\xee\xe2\xed\xff \xe2 \xee\xe4\xe8\xed\xee\xf7\xea\xf3\\\xd2\xc2-2\\13\\JamClub_Ore_dake_Level_Up_na_Ken_Season_2_13_1080p_HEVC(24).mkv" -r 24000/1001 -i "G:\\\xc0\xed\xe8\xec\xe5\\\xce\xed\xe3\xee\xe8\xed\xe3\xe8\\!_37_\xc7\xe8\xec\xe0_2025\\JamClub\\\xcf\xee\xe4\xed\xff\xf2\xe8\xe5 \xf3\xf0\xee\xe2\xed\xff \xe2 \xee\xe4\xe8\xed\xee\xf7\xea\xf3\\\xd2\xc2-2\\13\\JamClub_Ore_dake_Level_Up_na_Ken_Season_2_13_1080p.mp4" -lavfi "[0:v]settb=AVTB,setpts=PTS-STARTPTS,fps=24000/1001,scale=1920:1080:flags=bicubic[main];[1:v]settb=AVTB,setpts=PTS-STARTPTS[ref];[main][ref]psnr=eof_action=endall:stats_file='D\\:/Convert/FFMetrics/logs/psnr_logfile-4.txt'" -f null -
Input #0, matroska,webm, from 'G:\Аниме\Онгоинги\!_37_Зима_2025\JamClub\Поднятие уровня в одиночку\ТВ-2\13\JamClub_Ore_dake_Level_Up_na_Ken_Season_2_13_1080p_HEVC(24).mkv':
  Metadata:
    COMPATIBLE_BRANDS: isomiso2avc1mp41
    MAJOR_BRAND     : isom
    MINOR_VERSION   : 512
    ENCODER         : Lavf61.7.100
  Duration: 00:24:02.33, start: -0.001000, bitrate: 1729 kb/s
  Stream #0:0: Video: hevc (Main 10), yuv420p10le(tv, bt709, progressive), 1920x1080 [SAR 1:1 DAR 16:9], 23.98 fps, 23.98 tbr, 1k tbn (default)
      Metadata:
        HANDLER_NAME    : VideoHandler
        VENDOR_ID       : [0][0][0][0]
        ENCODER         : Lavc61.19.100 libx265
        DURATION        : 00:24:02.233000000
  Stream #0:1(eng): Audio: aac (LC), 48000 Hz, stereo, fltp (default)
      Metadata:
        HANDLER_NAME    : SoundHandler
        VENDOR_ID       : [0][0][0][0]
        ENCODER         : Lavc61.19.100 aac
        DURATION        : 00:24:02.326000000
Input #1, mov,mp4,m4a,3gp,3g2,mj2, from 'G:\Аниме\Онгоинги\!_37_Зима_2025\JamClub\Поднятие уровня в одиночку\ТВ-2\13\JamClub_Ore_dake_Level_Up_na_Ken_Season_2_13_1080p.mp4':
  Metadata:
    major_brand     : isom
    minor_version   : 512
    compatible_brands: isomiso2avc1mp41
    encoder         : Lavf60.16.100
  Duration: 00:24:02.31, start: 0.000000, bitrate: 5143 kb/s
  Stream #1:0[0x1](und): Video: h264 (High) (avc1 / 0x31637661), yuv420p(progressive), 1920x1080 [SAR 1:1 DAR 16:9], 4945 kb/s, 23.98 fps, 23.98 tbr, 90k tbn (default)
      Metadata:
        handler_name    : VideoHandler
        vendor_id       : [0][0][0][0]
  Stream #1:1[0x2](eng): Audio: aac (LC) (mp4a / 0x6134706D), 48000 Hz, stereo, fltp, 191 kb/s (default)
      Metadata:
        handler_name    : SoundHandler
        vendor_id       : [0][0][0][0]
Stream mapping:
  Stream #0:0 (hevc) -> settb:default
  Stream #1:0 (h264) -> settb:default
  psnr:default -> Stream #0:0 (wrapped_avframe)
  Stream #0:1 -> #0:1 (aac (native) -> pcm_s16le (native))
[Parsed_psnr_6 @ 000001fcda6a0a80] not matching timebases found between first input: 1001/24000 and second input 1/1000000, results may be incorrect!
Output #0, null, to 'pipe:':
  Metadata:
    COMPATIBLE_BRANDS: isomiso2avc1mp41
    MAJOR_BRAND     : isom
    MINOR_VERSION   : 512
    encoder         : Lavf61.7.100
  Stream #0:0: Video: wrapped_avframe, yuv420p(tv, bt709, progressive), 1920x1080 [SAR 1:1 DAR 16:9], q=2-31, 200 kb/s, 23.98 fps, 23.98 tbn
      Metadata:
        encoder         : Lavc61.19.100 wrapped_avframe
  Stream #0:1(eng): Audio: pcm_s16le, 48000 Hz, stereo, s16, 1536 kb/s (default)
      Metadata:
        HANDLER_NAME    : SoundHandler
        VENDOR_ID       : [0][0][0][0]
        DURATION        : 00:24:02.326000000
        encoder         : Lavc61.19.100 pcm_s16le
frame=  124 fps=0.0 q=-0.0 size=N/A time=00:00:05.13 bitrate=N/A speed=10.1x    frame=  326 fps=316 q=-0.0 size=N/A time=00:00:13.55 bitrate=N/A speed=13.1x    frame=  595 fps=387 q=-0.0 size=N/A time=00:00:24.77 bitrate=N/A speed=16.1x    frame=  881 fps=427 q=-0.0 size=N/A time=00:00:36.70 bitrate=N/A speed=17.8x    frame= 1149 fps=447 q=-0.0 size=N/A time=00:00:47.88 bitrate=N/A speed=18.6x    frame= 1426 fps=462 q=-0.0 size=N/A time=00:00:59.43 bitrate=N/A speed=19.3x    frame= 1712 fps=476 q=-0.0 size=N/A time=00:01:11.36 bitrate=N/A speed=19.8x    frame= 1970 fps=478 q=-0.0 size=N/A time=00:01:22.12 bitrate=N/A speed=19.9x    frame= 2178 fps=470 q=-0.0 size=N/A time=00:01:30.79 bitrate=N/A speed=19.6x    frame= 2419 fps=469 q=-0.0 size=N/A time=00:01:40.85 bitrate=N/A speed=19.6x    frame= 2660 fps=470 q=-0.0 size=N/A time=00:01:50.90 bitrate=N/A speed=19.6x    frame= 2852 fps=461 q=-0.0 size=N/A time=00:01:58.91 bitrate=N/A speed=19.2x    frame= 3055 fps=456 q=-0.0 size=N/A time=00:02:07.37 bitrate=N/A speed=  19x    frame= 3290 fps=456 q=-0.0 size=N/A time=00:02:17.17 bitrate=N/A speed=  19x    frame= 3476 fps=449 q=-0.0 size=N/A time=00:02:24.93 bitrate=N/A speed=18.7x    frame= 3671 fps=446 q=-0.0 size=N/A time=00:02:33.06 bitrate=N/A speed=18.6x    frame= 3849 fps=439 q=-0.0 size=N/A time=00:02:40.49 bitrate=N/A speed=18.3x    frame= 4086 fps=441 q=-0.0 size=N/A time=00:02:50.37 bitrate=N/A speed=18.4x    frame= 4417 fps=451 q=-0.0 size=N/A time=00:03:04.18 bitrate=N/A speed=18.8x    frame= 4760 fps=462 q=-0.0 size=N/A time=00:03:18.48 bitrate=N/A speed=19.3x    frame= 5047 fps=466 q=-0.0 size=N/A time=00:03:30.46 bitrate=N/A speed=19.4x    frame= 5352 fps=471 q=-0.0 size=N/A time=00:03:43.18 bitrate=N/A speed=19.7x    frame= 5559 fps=469 q=-0.0 size=N/A time=00:03:51.81 bitrate=N/A speed=19.5x    frame= 5787 fps=467 q=-0.0 size=N/A time=00:04:01.32 bitrate=N/A speed=19.5x    frame= 6099 fps=473 q=-0.0 size=N/A time=00:04:14.33 bitrate=N/A speed=19.7x    frame= 6404 fps=477 q=-0.0 size=N/A time=00:04:27.05 bitrate=N/A speed=19.9x    frame= 6735 fps=483 q=-0.0 size=N/A time=00:04:40.86 bitrate=N/A speed=20.1x    frame= 7057 fps=488 q=-0.0 size=N/A time=00:04:54.29 bitrate=N/A speed=20.3x    frame= 7327 fps=489 q=-0.0 size=N/A time=00:05:05.55 bitrate=N/A speed=20.4x    frame= 7600 fps=490 q=-0.0 size=N/A time=00:05:16.94 bitrate=N/A speed=20.5x    frame= 7905 fps=494 q=-0.0 size=N/A time=00:05:29.66 bitrate=N/A speed=20.6x    frame= 8219 fps=497 q=-0.0 size=N/A time=00:05:42.75 bitrate=N/A speed=20.7x    frame= 8567 fps=503 q=-0.0 size=N/A time=00:05:57.27 bitrate=N/A speed=  21x    frame= 8904 fps=507 q=-0.0 size=N/A time=00:06:11.32 bitrate=N/A speed=21.2x    frame= 9192 fps=508 q=-0.0 size=N/A time=00:06:23.34 bitrate=N/A speed=21.2x    frame= 9427 fps=507 q=-0.0 size=N/A time=00:06:33.14 bitrate=N/A speed=21.2x    frame= 9732 fps=509 q=-0.0 size=N/A time=00:06:45.86 bitrate=N/A speed=21.2x    frame=10016 fps=511 q=-0.0 size=N/A time=00:06:57.70 bitrate=N/A speed=21.3x    frame=10337 fps=513 q=-0.0 size=N/A time=00:07:11.09 bitrate=N/A speed=21.4x    frame=10665 fps=517 q=-0.0 size=N/A time=00:07:24.77 bitrate=N/A speed=21.5x    frame=10936 fps=517 q=-0.0 size=N/A time=00:07:36.08 bitrate=N/A speed=21.5x    frame=11165 fps=515 q=-0.0 size=N/A time=00:07:45.63 bitrate=N/A speed=21.5x    frame=11412 fps=514 q=-0.0 size=N/A time=00:07:55.93 bitrate=N/A speed=21.4x    frame=11683 fps=514 q=-0.0 size=N/A time=00:08:07.23 bitrate=N/A speed=21.5x    frame=11910 fps=513 q=-0.0 size=N/A time=00:08:16.70 bitrate=N/A speed=21.4x    frame=12186 fps=513 q=-0.0 size=N/A time=00:08:28.21 bitrate=N/A speed=21.4x    frame=12482 fps=515 q=-0.0 size=N/A time=00:08:40.56 bitrate=N/A speed=21.5x    frame=12741 fps=514 q=-0.0 size=N/A time=00:08:51.36 bitrate=N/A speed=21.4x    frame=12973 fps=513 q=-0.0 size=N/A time=00:09:01.04 bitrate=N/A speed=21.4x    frame=13217 fps=512 q=-0.0 size=N/A time=00:09:11.21 bitrate=N/A speed=21.4x    frame=13448 fps=511 q=-0.0 size=N/A time=00:09:20.85 bitrate=N/A speed=21.3x    frame=13741 fps=512 q=-0.0 size=N/A time=00:09:33.07 bitrate=N/A speed=21.4x    frame=14021 fps=513 q=-0.0 size=N/A time=00:09:44.75 bitrate=N/A speed=21.4x    frame=14348 fps=515 q=-0.0 size=N/A time=00:09:58.38 bitrate=N/A speed=21.5x    frame=14638 fps=516 q=-0.0 size=N/A time=00:10:10.48 bitrate=N/A speed=21.5x    frame=14933 fps=517 q=-0.0 size=N/A time=00:10:22.78 bitrate=N/A speed=21.5x    frame=15192 fps=517 q=-0.0 size=N/A time=00:10:33.59 bitrate=N/A speed=21.5x    frame=15490 fps=517 q=-0.0 size=N/A time=00:10:46.02 bitrate=N/A speed=21.6x    frame=15749 fps=517 q=-0.0 size=N/A time=00:10:56.82 bitrate=N/A speed=21.6x    frame=16023 fps=517 q=-0.0 size=N/A time=00:11:08.25 bitrate=N/A speed=21.6x    frame=16295 fps=518 q=-0.0 size=N/A time=00:11:19.59 bitrate=N/A speed=21.6x    frame=16591 fps=519 q=-0.0 size=N/A time=00:11:31.94 bitrate=N/A speed=21.6x    frame=16890 fps=519 q=-0.0 size=N/A time=00:11:44.41 bitrate=N/A speed=21.7x    frame=17143 fps=519 q=-0.0 size=N/A time=00:11:54.96 bitrate=N/A speed=21.6x    frame=17391 fps=519 q=-0.0 size=N/A time=00:12:05.30 bitrate=N/A speed=21.6x    frame=17644 fps=518 q=-0.0 size=N/A time=00:12:15.86 bitrate=N/A speed=21.6x    frame=17887 fps=517 q=-0.0 size=N/A time=00:12:25.99 bitrate=N/A speed=21.6x    frame=18190 fps=518 q=-0.0 size=N/A time=00:12:38.63 bitrate=N/A speed=21.6x    frame=18486 fps=519 q=-0.0 size=N/A time=00:12:50.97 bitrate=N/A speed=21.6x    frame=18817 fps=521 q=-0.0 size=N/A time=00:13:04.78 bitrate=N/A speed=21.7x    frame=19085 fps=521 q=-0.0 size=N/A time=00:13:15.96 bitrate=N/A speed=21.7x    frame=19339 fps=520 q=-0.0 size=N/A time=00:13:26.55 bitrate=N/A speed=21.7x    frame=19600 fps=520 q=-0.0 size=N/A time=00:13:37.44 bitrate=N/A speed=21.7x    frame=19809 fps=519 q=-0.0 size=N/A time=00:13:46.15 bitrate=N/A speed=21.6x    frame=20062 fps=518 q=-0.0 size=N/A time=00:13:56.71 bitrate=N/A speed=21.6x    frame=20350 fps=519 q=-0.0 size=N/A time=00:14:08.72 bitrate=N/A speed=21.6x    frame=20586 fps=518 q=-0.0 size=N/A time=00:14:18.56 bitrate=N/A speed=21.6x    frame=20881 fps=519 q=-0.0 size=N/A time=00:14:30.87 bitrate=N/A speed=21.6x    frame=21188 fps=520 q=-0.0 size=N/A time=00:14:43.67 bitrate=N/A speed=21.7x    frame=21493 fps=521 q=-0.0 size=N/A time=00:14:56.39 bitrate=N/A speed=21.7x    frame=21786 fps=521 q=-0.0 size=N/A time=00:15:08.61 bitrate=N/A speed=21.7x    frame=22083 fps=522 q=-0.0 size=N/A time=00:15:21.00 bitrate=N/A speed=21.8x    frame=22442 fps=524 q=-0.0 size=N/A time=00:15:35.97 bitrate=N/A speed=21.8x    frame=22765 fps=525 q=-0.0 size=N/A time=00:15:49.44 bitrate=N/A speed=21.9x    frame=23082 fps=526 q=-0.0 size=N/A time=00:16:02.67 bitrate=N/A speed=21.9x    frame=23428 fps=528 q=-0.0 size=N/A time=00:16:17.10 bitrate=N/A speed=  22x    frame=23737 fps=529 q=-0.0 size=N/A time=00:16:29.98 bitrate=N/A speed=  22x    frame=24028 fps=529 q=-0.0 size=N/A time=00:16:42.12 bitrate=N/A speed=22.1x    frame=24325 fps=530 q=-0.0 size=N/A time=00:16:54.51 bitrate=N/A speed=22.1x    frame=24630 fps=530 q=-0.0 size=N/A time=00:17:07.23 bitrate=N/A speed=22.1x    frame=24942 fps=531 q=-0.0 size=N/A time=00:17:20.24 bitrate=N/A speed=22.1x    frame=25269 fps=532 q=-0.0 size=N/A time=00:17:33.88 bitrate=N/A speed=22.2x    frame=25535 fps=532 q=-0.0 size=N/A time=00:17:44.98 bitrate=N/A speed=22.2x    frame=25850 fps=533 q=-0.0 size=N/A time=00:17:58.11 bitrate=N/A speed=22.2x    frame=26151 fps=533 q=-0.0 size=N/A time=00:18:10.67 bitrate=N/A speed=22.2x    frame=26435 fps=534 q=-0.0 size=N/A time=00:18:22.51 bitrate=N/A speed=22.3x    frame=26717 fps=534 q=-0.0 size=N/A time=00:18:34.27 bitrate=N/A speed=22.3x    frame=27050 fps=535 q=-0.0 size=N/A time=00:18:48.16 bitrate=N/A speed=22.3x    frame=27403 fps=536 q=-0.0 size=N/A time=00:19:02.89 bitrate=N/A speed=22.4x    frame=27741 fps=538 q=-0.0 size=N/A time=00:19:16.98 bitrate=N/A speed=22.4x    frame=28055 fps=538 q=-0.0 size=N/A time=00:19:30.08 bitrate=N/A speed=22.4x    frame=28358 fps=539 q=-0.0 size=N/A time=00:19:42.72 bitrate=N/A speed=22.5x    frame=28643 fps=539 q=-0.0 size=N/A time=00:19:54.61 bitrate=N/A speed=22.5x    frame=28893 fps=538 q=-0.0 size=N/A time=00:20:05.03 bitrate=N/A speed=22.5x    frame=29150 fps=538 q=-0.0 size=N/A time=00:20:15.75 bitrate=N/A speed=22.4x    frame=29401 fps=537 q=-0.0 size=N/A time=00:20:26.22 bitrate=N/A speed=22.4x    frame=29594 fps=536 q=-0.0 size=N/A time=00:20:34.27 bitrate=N/A speed=22.4x    frame=29788 fps=534 q=-0.0 size=N/A time=00:20:42.36 bitrate=N/A speed=22.3x    frame=30039 fps=534 q=-0.0 size=N/A time=00:20:52.83 bitrate=N/A speed=22.3x    frame=30351 fps=535 q=-0.0 size=N/A time=00:21:05.84 bitrate=N/A speed=22.3x    frame=30633 fps=535 q=-0.0 size=N/A time=00:21:17.60 bitrate=N/A speed=22.3x    frame=30863 fps=534 q=-0.0 size=N/A time=00:21:27.20 bitrate=N/A speed=22.3x    frame=31092 fps=533 q=-0.0 size=N/A time=00:21:36.75 bitrate=N/A speed=22.2x    frame=31329 fps=533 q=-0.0 size=N/A time=00:21:46.63 bitrate=N/A speed=22.2x    frame=31555 fps=532 q=-0.0 size=N/A time=00:21:56.06 bitrate=N/A speed=22.2x    frame=31829 fps=532 q=-0.0 size=N/A time=00:22:07.49 bitrate=N/A speed=22.2x    frame=32058 fps=531 q=-0.0 size=N/A time=00:22:17.04 bitrate=N/A speed=22.2x    frame=32234 fps=529 q=-0.0 size=N/A time=00:22:24.38 bitrate=N/A speed=22.1x    frame=32419 fps=528 q=-0.0 size=N/A time=00:22:32.10 bitrate=N/A speed=  22x    frame=32646 fps=527 q=-0.0 size=N/A time=00:22:41.56 bitrate=N/A speed=  22x    frame=32854 fps=526 q=-0.0 size=N/A time=00:22:50.24 bitrate=N/A speed=21.9x    frame=33015 fps=524 q=-0.0 size=N/A time=00:22:56.95 bitrate=N/A speed=21.9x    frame=33158 fps=522 q=-0.0 size=N/A time=00:23:02.92 bitrate=N/A speed=21.8x    frame=33310 fps=521 q=-0.0 size=N/A time=00:23:09.26 bitrate=N/A speed=21.7x    frame=33464 fps=519 q=-0.0 size=N/A time=00:23:15.68 bitrate=N/A speed=21.6x    frame=33695 fps=518 q=-0.0 size=N/A time=00:23:25.32 bitrate=N/A speed=21.6x    frame=33831 fps=516 q=-0.0 size=N/A time=00:23:30.99 bitrate=N/A speed=21.5x    frame=33967 fps=514 q=-0.0 size=N/A time=00:23:36.66 bitrate=N/A speed=21.4x    frame=34128 fps=513 q=-0.0 size=N/A time=00:23:43.38 bitrate=N/A speed=21.4x    frame=34322 fps=512 q=-0.0 size=N/A time=00:23:51.47 bitrate=N/A speed=21.3x    frame=34556 fps=511 q=-0.0 size=N/A time=00:24:01.23 bitrate=N/A speed=21.3x    [Parsed_psnr_6 @ 000001fcda6a0a80] PSNR y:46.716538 u:48.917214 v:48.866862 average:47.328042 min:36.228623 max:inf
[out#0/null @ 000001fcda146bc0] video:14858KiB audio:270432KiB subtitle:0KiB other streams:0KiB global headers:0KiB muxing overhead: unknown
frame=34579 fps=511 q=-0.0 Lsize=N/A time=00:24:02.19 bitrate=N/A speed=21.3x    
